<?xml version="1.0" encoding="iso-8859-1"?>
<!-- Generator: Adobe Illustrator 19.0.0, SVG Export Plug-In . SVG Version: 6.00 Build 0)  -->
<svg version="1.1" id="Layer_1" xmlns="http://www.w3.org/2000/svg" xmlns:xlink="http://www.w3.org/1999/xlink" x="0px" y="0px"
	 viewBox="0 0 512 512" style="enable-background:new 0 0 512 512;" xml:space="preserve">
<g>
	<path style="fill:#507C5C;" d="M60.76,139.885c-7.812,0-14.144-6.332-14.144-14.144V60.76c0-7.812,6.332-14.144,14.144-14.144
		h64.98c7.812,0,14.144,6.332,14.144,14.144s-6.332,14.144-14.144,14.144H74.903v50.837
		C74.903,133.553,68.571,139.885,60.76,139.885z"/>
	<path style="fill:#507C5C;" d="M451.239,465.384H386.26c-7.81,0-14.144-6.332-14.144-14.144s6.334-14.144,14.144-14.144h50.835
		V386.26c0-7.812,6.334-14.144,14.144-14.144c7.81,0,14.144,6.332,14.144,14.144v64.98
		C465.383,459.05,459.05,465.384,451.239,465.384z"/>
	<path style="fill:#507C5C;" d="M497.856,512H14.144C6.332,512,0,505.668,0,497.856V14.144C0,6.332,6.332,0,14.144,0h483.713
		C505.667,0,512,6.332,512,14.144v483.713C512,505.668,505.667,512,497.856,512z M28.287,483.713h455.425V28.287H28.287V483.713z"/>
</g>
<path style="fill:#CFF09E;" d="M393.893,207.912v-89.805H118.107v275.787h275.787v-77.783 M339.651,287.116h-52.535v52.535h-62.232
	v-52.535h-52.535v-62.232h52.535v-52.535h62.232v52.535h52.535V287.116z"/>
<path style="fill:#507C5C;" d="M393.893,408.037H118.107c-7.812,0-14.144-6.332-14.144-14.144V118.107
	c0-7.812,6.332-14.144,14.144-14.144h275.787c7.81,0,14.144,6.332,14.144,14.144v89.805c0,7.812-6.334,14.144-14.144,14.144
	s-14.144-6.332-14.144-14.144V132.25h-247.5v247.5h247.5v-63.639c0-7.812,6.334-14.144,14.144-14.144s14.144,6.332,14.144,14.144
	v77.783C408.037,401.705,401.705,408.037,393.893,408.037z M287.116,353.795h-62.232c-7.812,0-14.144-6.332-14.144-14.144V301.26
	h-38.392c-7.812,0-14.144-6.332-14.144-14.144v-62.232c0-7.812,6.332-14.144,14.144-14.144h38.392v-38.392
	c0-7.812,6.332-14.144,14.144-14.144h62.232c7.81,0,14.144,6.332,14.144,14.144v38.392h38.393c7.81,0,14.144,6.332,14.144,14.144
	v62.232c0,7.812-6.334,14.144-14.144,14.144H301.26v38.392C301.26,347.463,294.926,353.795,287.116,353.795z M239.028,325.508
	h33.945v-38.392c0-7.812,6.334-14.144,14.144-14.144h38.393v-33.945h-38.393c-7.81,0-14.144-6.332-14.144-14.144v-38.392h-33.945
	v38.392c0,7.812-6.332,14.144-14.144,14.144h-38.392v33.945h38.392c7.812,0,14.144,6.332,14.144,14.144V325.508z"/>
<g>
</g>
<g>
</g>
<g>
</g>
<g>
</g>
<g>
</g>
<g>
</g>
<g>
</g>
<g>
</g>
<g>
</g>
<g>
</g>
<g>
</g>
<g>
</g>
<g>
</g>
<g>
</g>
<g>
</g>
</svg>
